<?xml version="1.0" standalone="no"?>
<svg xmlns="http://www.w3.org/2000/svg"
     version="1.1" 
     max-width="100%"
     preserveAspectRatio="xMinYMin meet"
     viewBox="0 0 950 750"
     >
     <defs>
       <style type="text/css">@import url(http://fonts.googleapis.com/css?family=Alegreya+Sans:wght@400;700);</style>
       <style type="text/css">
         text {
           font-family: "Alegreya Sans", sans-serif;
         }
         text {
           fill: #2c363c;
         }
         path {
           stroke: #2c363c;
         }
         line {
           stroke: #2c363c;
         }
         .red {
           stroke: #A8334C;
           fill: #A8334C;
         }
         .blue {
           stroke: #286486;
           fill: #286486;
         }
         @media (prefers-color-scheme: dark) {
           text {
             fill: #b4bdc3;
           }
           path {
             stroke: #b4bdc3;
           }
           line {
             stroke: #b4bdc3;
           }
           .red {
             stroke: #DE6E7C;
             fill: #DE6E7C;
           }
           .blue {
             stroke: #6099C0;
             fill: #6099C0;
           }
         }
       </style>
     </defs>

    <g stroke-width="2" stroke-linecap="square">
      <line x1="50" y1="200" x2="50" y2="700" />
      <line x1="50" y1="700" x2="850" y2="700" />
    </g>

    <g font-size="28">
      <text x="50" y="186" text-anchor="middle">Value</text>
      <text x="864" y="700" text-anchor="start" dominant-baseline="middle">State</text>
    </g>

    <!-- Y ticks -->
    <g transform="translate(0, 200)" font-size="24" text-anchor="end" dominant-baseline="central">
      <text x="40" y="50">15</text>
      <text x="40" y="200">10</text>
      <text x="40" y="350">5</text>
      <text x="40" y="500">0</text>
    </g>

    <!-- X ticks -->
    <g transform="translate(50, 710)" font-size="24" text-anchor="middle" dominant-baseline="hanging">
      <text x="0" y="0">0</text>
      <text x="85" y="0">1</text>
      <text x="170" y="0">2</text>
      <text x="255" y="0">3</text>
      <text x="340" y="0">4</text>
      <text x="425" y="0">5</text>
      <text x="510" y="0">6</text>
      <text x="595" y="0">7</text>
      <text x="680" y="0">8</text>
      <text x="765" y="0">9</text>
    </g>

    <!-- Lines -->
    <g transform="translate(50, 200)" stroke-width="2" fill="none">
      <path d="
        M 0,140
        L 425,140
        L 425,110
        L 765,110
      " />
      <path d="
        M 0,320
        L 170,320
        L 170,290
        L 510,290
        L 510,50
        L 765,50
      " />
    </g>

    <!-- Labels -->
    <g transform="translate(50, 200)" font-size="28" text-anchor="start" dominant-baseline="central">
      <text x="779" y="110">B</text>
      <text x="779" y="50">C</text>
    </g>
</svg>
