<?xml version="1.0" encoding="UTF-8" standalone="no"?><svg xmlns="http://www.w3.org/2000/svg" xmlns:xlink="http://www.w3.org/1999/xlink" contentScriptType="application/ecmascript" contentStyleType="text/css" height="443px" preserveAspectRatio="none" style="width:322px;height:443px;" version="1.1" viewBox="0 0 322 443" width="322px" zoomAndPan="magnify"><defs/><g><rect fill="#EEEEEE" height="50" rx="12.5" ry="12.5" style="stroke: #333333; stroke-width: 1.5;" width="118" x="96" y="8"/><line style="stroke: #333333; stroke-width: 1.5;" x1="96" x2="214" y1="34.002" y2="34.002"/><text fill="#000000" font-family="Monaco" font-size="12" lengthAdjust="spacingAndGlyphs" textLength="98" x="106" y="26.002">StatusLineOpen</text><rect fill="#EEEEEE" height="50" rx="12.5" ry="12.5" style="stroke: #333333; stroke-width: 1.5;" width="97" x="106.5" y="136"/><line style="stroke: #333333; stroke-width: 1.5;" x1="106.5" x2="203.5" y1="162.002" y2="162.002"/><text fill="#000000" font-family="Monaco" font-size="12" lengthAdjust="spacingAndGlyphs" textLength="77" x="116.5" y="154.002">HeadersOpen</text><rect fill="#EEEEEE" height="50" rx="12.5" ry="12.5" style="stroke: #333333; stroke-width: 1.5;" width="76" x="117" y="264"/><line style="stroke: #333333; stroke-width: 1.5;" x1="117" x2="193" y1="290.002" y2="290.002"/><text fill="#000000" font-family="Monaco" font-size="12" lengthAdjust="spacingAndGlyphs" textLength="56" x="127" y="282.002">BodyOpen</text><rect fill="#EEEEEE" height="50" rx="12.5" ry="12.5" style="stroke: #333333; stroke-width: 1.5;" width="111" x="99.5" y="392"/><line style="stroke: #333333; stroke-width: 1.5;" x1="99.5" x2="210.5" y1="418.002" y2="418.002"/><text fill="#000000" font-family="Monaco" font-size="12" lengthAdjust="spacingAndGlyphs" textLength="91" x="109.5" y="410.002">ResponseEnded</text><ellipse cx="16" cy="33" fill="#445588" rx="10" ry="10" style="stroke: none; stroke-width: 1.0;"/><ellipse cx="290" cy="417" fill="none" rx="10" ry="10" style="stroke: #D01040; stroke-width: 1.0;"/><ellipse cx="290.5" cy="417.5" fill="#D01040" rx="6" ry="6" style="stroke: none; stroke-width: 1.0;"/><path d="M26.0449,33 C47.5745,33 69.1041,33 90.6336,33 " fill="none" style="stroke: #656B49; stroke-width: 1.0;"/><polygon fill="#656B49" points="95.8116,33,86.8116,29,90.8116,33,86.8116,37,95.8116,33" style="stroke: #656B49; stroke-width: 1.0;"/><path d="M155,58.294 C155,78.95 155,108.669 155,130.651 " fill="none" style="stroke: #656B49; stroke-width: 1.0;"/><polygon fill="#656B49" points="155,135.781,159,126.781,155,130.781,151,126.781,155,135.781" style="stroke: #656B49; stroke-width: 1.0;"/><text fill="#000000" font-family="Monaco" font-size="12" lengthAdjust="spacingAndGlyphs" textLength="77" x="156" y="102.002">writeStatus</text><path d="M203.888,149.047 C222.789,148.516 238.5,152.5 238.5,161 C238.5,168.703 225.597,172.698 209.109,172.983 " fill="none" style="stroke: #656B49; stroke-width: 1.0;"/><polygon fill="#656B49" points="203.888,172.953,212.8638,177.0069,208.8879,172.983,212.9118,169.0071,203.888,172.953" style="stroke: #656B49; stroke-width: 1.0;"/><text fill="#000000" font-family="Monaco" font-size="12" lengthAdjust="spacingAndGlyphs" textLength="77" x="244.5" y="166.002">writeHeader</text><path d="M155,186.294 C155,206.95 155,236.669 155,258.651 " fill="none" style="stroke: #656B49; stroke-width: 1.0;"/><polygon fill="#656B49" points="155,263.781,159,254.781,155,258.781,151,254.781,155,263.781" style="stroke: #656B49; stroke-width: 1.0;"/><text fill="#000000" font-family="Monaco" font-size="12" lengthAdjust="spacingAndGlyphs" textLength="84" x="156" y="230.002">closeHeaders</text><path d="M193.308,277.293 C211.734,275.848 228,279.75 228,289 C228,297.383 214.641,301.374 198.422,300.973 " fill="none" style="stroke: #656B49; stroke-width: 1.0;"/><polygon fill="#656B49" points="193.308,300.707,202.0891,305.1671,198.3013,300.9656,202.5028,297.1778,193.308,300.707" style="stroke: #656B49; stroke-width: 1.0;"/><text fill="#000000" font-family="Monaco" font-size="12" lengthAdjust="spacingAndGlyphs" textLength="28" x="234" y="294.002">send</text><path d="M155,314.294 C155,334.95 155,364.669 155,386.6514 " fill="none" style="stroke: #656B49; stroke-width: 1.0;"/><polygon fill="#656B49" points="155,391.7805,159,382.7805,155,386.7805,151,382.7805,155,391.7805" style="stroke: #656B49; stroke-width: 1.0;"/><text fill="#000000" font-family="Monaco" font-size="12" lengthAdjust="spacingAndGlyphs" textLength="21" x="156" y="358.002">end</text><path d="M210.635,417 C231.969,417 253.304,417 274.638,417 " fill="none" style="stroke: #656B49; stroke-width: 1.0;"/><polygon fill="#656B49" points="279.769,417,270.769,413,274.769,417,270.769,421,279.769,417" style="stroke: #656B49; stroke-width: 1.0;"/></g></svg>