<?xml version="1.0" encoding="UTF-8" standalone="no"?><svg xmlns="http://www.w3.org/2000/svg" xmlns:xlink="http://www.w3.org/1999/xlink" contentScriptType="application/ecmascript" contentStyleType="text/css" height="846.875px" preserveAspectRatio="none" style="width:1065px;height:846px;" version="1.1" viewBox="0 0 1065 846" width="1065.625px" zoomAndPan="magnify"><defs/><g><rect fill="#EEEEEE" height="156.25" rx="39.0625" ry="39.0625" style="stroke: #333333; stroke-width: 4.6875;" width="181.25" x="18.75" y="340.625"/><line style="stroke: #333333; stroke-width: 4.6875;" x1="18.75" x2="200" y1="431.4545" y2="431.4545"/><text fill="#000000" font-family="Noto Sans" font-size="43.75" font-weight="bold" lengthAdjust="spacingAndGlyphs" textLength="118.75" x="50" y="403.0121">Write</text><rect fill="#EEEEEE" height="156.25" rx="39.0625" ry="39.0625" style="stroke: #333333; stroke-width: 4.6875;" width="168.75" x="571.875" y="340.625"/><line style="stroke: #333333; stroke-width: 4.6875;" x1="571.875" x2="740.625" y1="431.4545" y2="431.4545"/><text fill="#000000" font-family="Noto Sans" font-size="43.75" font-weight="bold" lengthAdjust="spacingAndGlyphs" textLength="106.25" x="603.125" y="403.0121">Read</text><ellipse cx="412.5" cy="56.25" fill="#000000" rx="31.25" ry="31.25" style="stroke: none; stroke-width: 3.125;"/><ellipse cx="412.5" cy="781.25" fill="none" rx="31.25" ry="31.25" style="stroke: #000000; stroke-width: 3.125;"/><ellipse cx="414.0625" cy="782.8125" fill="#000000" rx="18.75" ry="18.75" style="stroke: none; stroke-width: 3.125;"/><!--link *start to Read--><path d="M429.2531,83.8625 C462.8063,132.9 539.7406,245.3406 594.7375,325.7219 " fill="none" id="*start-Read" style="stroke: #333333; stroke-width: 3.125;"/><polygon fill="#333333" points="604.0469,339.3313,598.4815,309.0609,595.2237,326.4358,577.8488,323.178,604.0469,339.3313" style="stroke: #333333; stroke-width: 3.125;"/><text fill="#000000" font-family="Noto Sans" font-size="43.75" font-style="italic" lengthAdjust="spacingAndGlyphs" textLength="165.625" x="537.5" y="231.1371">openFile</text><!--link *start to Write--><path d="M392.1719,80.5813 C369.3156,104.6062 331.3063,145.1281 300,181.25 C258.8663,228.7094 214.5072,283.0469 178.9391,327.4469 " fill="none" id="*start-Write" style="stroke: #333333; stroke-width: 3.125;"/><polygon fill="#333333" points="169.15,339.6938,196.474,325.5281,178.9053,327.4882,176.9451,309.9196,169.15,339.6938" style="stroke: #333333; stroke-width: 3.125;"/><text fill="#000000" font-family="Noto Sans" font-size="43.75" font-style="italic" lengthAdjust="spacingAndGlyphs" textLength="165.625" x="303.125" y="231.1371">openFile</text><!--link Read to Read--><path d="M740.9,384.3844 C796.3406,375.0687 850,386.525 850,418.75 C850,447.9563 805.9313,460.1031 756.4031,455.1875 " fill="none" id="Read-Read" style="stroke: #333333; stroke-width: 3.125;"/><polygon fill="#333333" points="740.9,453.1156,767.1195,469.234,756.3871,455.1871,770.4339,444.4546,740.9,453.1156" style="stroke: #333333; stroke-width: 3.125;"/><text fill="#000000" font-family="Noto Sans" font-size="43.75" font-style="italic" lengthAdjust="spacingAndGlyphs" textLength="159.375" x="868.75" y="406.1371">readFile</text><text fill="#000000" font-family="Noto Sans" font-size="43.75" font-style="italic" lengthAdjust="spacingAndGlyphs" textLength="75" x="910.9375" y="465.7166">stat</text><!--link Write to Write--><path d="M200.9153,383.7438 C256.6384,375.6344 309.375,387.3063 309.375,418.75 C309.375,447.2469 266.0631,459.5031 216.4675,455.5156 " fill="none" id="Write-Write" style="stroke: #333333; stroke-width: 3.125;"/><polygon fill="#333333" points="200.9153,453.7563,227.4572,469.3381,216.4413,455.5124,230.267,444.4965,200.9153,453.7563" style="stroke: #333333; stroke-width: 3.125;"/><text fill="#000000" font-family="Noto Sans" font-size="43.75" font-style="italic" lengthAdjust="spacingAndGlyphs" textLength="168.75" x="328.125" y="406.1371">writeFile</text><text fill="#000000" font-family="Noto Sans" font-size="43.75" font-style="italic" lengthAdjust="spacingAndGlyphs" textLength="75" x="375" y="465.7166">stat</text><!--link Read to *end--><path d="M604.5563,497.425 C553.5406,571.9891 477.6344,682.9269 438.2688,740.4616 " fill="none" id="Read-*end" style="stroke: #333333; stroke-width: 3.125;"/><polygon fill="#333333" points="429.0875,753.8838,455.2871,737.733,437.9119,740.9892,434.6557,723.614,429.0875,753.8838" style="stroke: #333333; stroke-width: 3.125;"/><text fill="#000000" font-family="Noto Sans" font-size="43.75" font-style="italic" lengthAdjust="spacingAndGlyphs" textLength="165.625" x="537.5" y="640.5121">closeFile</text><!--link Write to *end--><path d="M169.15,497.8063 C206.1375,544.1731 254.9991,604.3288 300,656.25 C326.415,686.7272 357.6,720.3372 380.4313,744.5288 " fill="none" id="Write-*end" style="stroke: #333333; stroke-width: 3.125;"/><polygon fill="#333333" points="392.1719,756.9197,381.9038,727.9053,381.426,745.5765,363.7548,745.0987,392.1719,756.9197" style="stroke: #333333; stroke-width: 3.125;"/><text fill="#000000" font-family="Noto Sans" font-size="43.75" font-style="italic" lengthAdjust="spacingAndGlyphs" textLength="165.625" x="303.125" y="640.5121">closeFile</text><!--
@startuml
hide circle

skinparam dpi 300

skinparam shadowing false

skinparam defaultFontSize 14
skinparam defaultFontName Noto Sans

skinparam class {
  BackgroundColor #eeeeee
  ArrowColor #333333
  BorderColor #333333
}

skinparam state {
  BackgroundColor #eeeeee
  BorderColor #333333
  FontStyle bold
}

skinparam arrow {
  FontStyle italic
  ArrowColor #333333
}

state Write
state Read

[*] - -> Read : openFile
[*] - -> Write : openFile

Read - -> Read : readFile\nstat
Write - -> Write : writeFile\nstat

Read - -> [*] : closeFile
Write - -> [*] : closeFile

@enduml

PlantUML version 1.2017.16(Sun Sep 03 12:53:37 CEST 2017)
(GPL source distribution)
Java Runtime: Java(TM) SE Runtime Environment
JVM: Java HotSpot(TM) 64-Bit Server VM
Java Version: 9+181
Operating System: Linux
OS Version: 4.10.0-38-generic
Default Encoding: UTF-8
Language: en
Country: US
--></g></svg>