<?xml version="1.0" encoding="UTF-8" standalone="no"?><svg xmlns="http://www.w3.org/2000/svg" xmlns:xlink="http://www.w3.org/1999/xlink" contentScriptType="application/ecmascript" contentStyleType="text/css" height="1125px" preserveAspectRatio="none" style="width:1756px;height:1125px;" version="1.1" viewBox="0 0 1756 1125" width="1756.25px" zoomAndPan="magnify"><defs/><g><rect fill="#EEEEEE" height="156.25" rx="39.0625" ry="39.0625" style="stroke: #333333; stroke-width: 4.6875;" width="368.75" x="418.75" y="25"/><line style="stroke: #333333; stroke-width: 4.6875;" x1="418.75" x2="787.5" y1="115.8295" y2="115.8295"/><text fill="#000000" font-family="Noto Sans" font-size="43.75" font-weight="bold" lengthAdjust="spacingAndGlyphs" textLength="306.25" x="450" y="87.3871">FlightSelected</text><rect fill="#EEEEEE" height="156.25" rx="39.0625" ry="39.0625" style="stroke: #333333; stroke-width: 4.6875;" width="346.875" x="698.4375" y="434.375"/><line style="stroke: #333333; stroke-width: 4.6875;" x1="698.4375" x2="1045.3125" y1="525.2045" y2="525.2045"/><text fill="#000000" font-family="Noto Sans" font-size="43.75" font-weight="bold" lengthAdjust="spacingAndGlyphs" textLength="284.375" x="729.6875" y="496.7621">SeatReleased</text><rect fill="#EEEEEE" height="156.25" rx="39.0625" ry="39.0625" style="stroke: #333333; stroke-width: 4.6875;" width="450" x="968.75" y="934.375"/><line style="stroke: #333333; stroke-width: 4.6875;" x1="968.75" x2="1418.75" y1="1025.2045" y2="1025.2045"/><text fill="#000000" font-family="Noto Sans" font-size="43.75" font-weight="bold" lengthAdjust="spacingAndGlyphs" textLength="387.5" x="1000" y="996.7621">BookingCancelled</text><rect fill="#EEEEEE" height="156.25" rx="39.0625" ry="39.0625" style="stroke: #333333; stroke-width: 4.6875;" width="353.125" x="1095.3125" y="25"/><line style="stroke: #333333; stroke-width: 4.6875;" x1="1095.3125" x2="1448.4375" y1="115.8295" y2="115.8295"/><text fill="#000000" font-family="Noto Sans" font-size="43.75" font-weight="bold" lengthAdjust="spacingAndGlyphs" textLength="290.625" x="1126.5625" y="87.3871">SeatReserved</text><rect fill="#EEEEEE" height="156.25" rx="39.0625" ry="39.0625" style="stroke: #333333; stroke-width: 4.6875;" width="321.875" x="1398.4375" y="684.375"/><line style="stroke: #333333; stroke-width: 4.6875;" x1="1398.4375" x2="1720.3125" y1="775.2045" y2="775.2045"/><text fill="#000000" font-family="Noto Sans" font-size="43.75" font-weight="bold" lengthAdjust="spacingAndGlyphs" textLength="259.375" x="1429.6875" y="746.7621">SeatBooked</text><ellipse cx="50" cy="103.125" fill="#000000" rx="31.25" ry="31.25" style="stroke: none; stroke-width: 3.125;"/><ellipse cx="1559.375" cy="1012.5" fill="none" rx="31.25" ry="31.25" style="stroke: #000000; stroke-width: 3.125;"/><ellipse cx="1560.9375" cy="1014.0625" fill="#000000" rx="18.75" ry="18.75" style="stroke: none; stroke-width: 3.125;"/><!--link *start to FlightSelected--><path d="M81.3231,103.125 C142.5634,103.125 282.6338,103.125 402.2438,103.125 " fill="none" id="*start-FlightSelected" style="stroke: #333333; stroke-width: 3.125;"/><polygon fill="#333333" points="418.2219,103.125,390.0969,90.625,402.5969,103.125,390.0969,115.625,418.2219,103.125" style="stroke: #333333; stroke-width: 3.125;"/><text fill="#000000" font-family="Noto Sans" font-size="43.75" font-style="italic" lengthAdjust="spacingAndGlyphs" textLength="221.875" x="139.0625" y="78.0121">selectFlight</text><!--link FlightSelected to SeatReserved--><path d="M787.6344,103.125 C878.2719,103.125 987.4313,103.125 1079.1469,103.125 " fill="none" id="FlightSelected-SeatReserved" style="stroke: #333333; stroke-width: 3.125;"/><polygon fill="#333333" points="1094.8844,103.125,1066.7594,90.625,1079.2594,103.125,1066.7594,115.625,1094.8844,103.125" style="stroke: #333333; stroke-width: 3.125;"/><text fill="#000000" font-family="Noto Sans" font-size="43.75" font-style="italic" lengthAdjust="spacingAndGlyphs" textLength="193.75" x="844.5313" y="78.0121">selectSeat</text><!--link SeatReserved to SeatBooked--><path d="M1305.9781,181.7187 C1335.9188,248.15 1380.5344,347.5469 1418.75,434.375 C1453.5188,513.3688 1492.4406,603.4563 1520.5094,668.7188 " fill="none" id="SeatReserved-SeatBooked" style="stroke: #333333; stroke-width: 3.125;"/><polygon fill="#333333" points="1526.6844,683.0844,1527.0566,652.3089,1520.5116,668.7304,1504.0902,662.1854,1526.6844,683.0844" style="stroke: #333333; stroke-width: 3.125;"/><text fill="#000000" font-family="Noto Sans" font-size="43.75" font-style="italic" lengthAdjust="spacingAndGlyphs" textLength="221.875" x="1378.125" y="324.8871">payForSeat</text><!--link SeatReserved to SeatReleased--><path d="M1094.8281,145.8906 C1023.275,170.9906 946.7063,211.2219 900,275 C870.4563,315.3438 862.6844,370.4719 862.6438,417.1281 " fill="none" id="SeatReserved-SeatReleased" style="stroke: #333333; stroke-width: 3.125;"/><polygon fill="#333333" points="862.9531,433.8906,874.9286,405.5383,862.6629,418.2683,849.9329,406.0026,862.9531,433.8906" style="stroke: #333333; stroke-width: 3.125;"/><text fill="#000000" font-family="Noto Sans" font-size="43.75" font-style="italic" lengthAdjust="spacingAndGlyphs" textLength="278.125" x="903.125" y="324.8871">timeout(5min)</text><!--link SeatReleased to FlightSelected--><path d="M713.6938,433.7625 C677.7719,409.0938 643.7875,378.1594 621.875,340.625 C597.1281,298.2406 591.4938,243.9687 592.4719,198.325 " fill="none" id="SeatReleased-FlightSelected" style="stroke: #333333; stroke-width: 3.125;"/><polygon fill="#333333" points="593.1094,181.9375,579.5183,209.5518,592.4979,197.5505,604.4991,210.5301,593.1094,181.9375" style="stroke: #333333; stroke-width: 3.125;"/><text fill="#000000" font-family="Noto Sans" font-size="43.75" font-style="italic" lengthAdjust="spacingAndGlyphs" textLength="134.375" x="625" y="324.8871">restart</text><!--link SeatReleased to BookingCancelled--><path d="M910.1875,591.3375 C945.3031,658.6156 1000.2188,758.7 1056.25,840.625 C1074.95,867.9675 1096.9656,896.3703 1117.8344,921.9013 " fill="none" id="SeatReleased-BookingCancelled" style="stroke: #333333; stroke-width: 3.125;"/><polygon fill="#333333" points="1127.9656,934.1869,1119.7128,904.5363,1118.0235,922.1331,1100.4267,920.4438,1127.9656,934.1869" style="stroke: #333333; stroke-width: 3.125;"/><text fill="#000000" font-family="Noto Sans" font-size="43.75" font-style="italic" lengthAdjust="spacingAndGlyphs" textLength="121.875" x="1059.375" y="779.5746">cancel</text><!--link SeatReserved to BookingCancelled--><path d="M1265.35,181.6969 C1251.075,346.7156 1217.1219,739.2125 1201.6625,917.9234 " fill="none" id="SeatReserved-BookingCancelled" style="stroke: #333333; stroke-width: 3.125;"/><polygon fill="#333333" points="1200.3125,933.5081,1215.1903,906.5653,1201.6594,917.9413,1190.2834,904.4103,1200.3125,933.5081" style="stroke: #333333; stroke-width: 3.125;"/><text fill="#000000" font-family="Noto Sans" font-size="43.75" font-style="italic" lengthAdjust="spacingAndGlyphs" textLength="121.875" x="1243.75" y="529.5746">cancel</text><!--link BookingCancelled to *end--><path d="M1419.4094,1012.5 C1450.1375,1012.5 1480.8656,1012.5 1511.5938,1012.5 " fill="none" id="BookingCancelled-*end" style="stroke: #333333; stroke-width: 3.125;"/><polygon fill="#333333" points="1527.6625,1012.5,1499.5375,1000,1512.0375,1012.5,1499.5375,1025,1527.6625,1012.5" style="stroke: #333333; stroke-width: 3.125;"/><!--link SeatBooked to *end--><path d="M1559.375,841.4128 C1559.375,881.7666 1559.375,930.0253 1559.375,964.4384 " fill="none" id="SeatBooked-*end" style="stroke: #333333; stroke-width: 3.125;"/><polygon fill="#333333" points="1559.375,980.1244,1571.875,951.9994,1559.375,964.4994,1546.875,951.9994,1559.375,980.1244" style="stroke: #333333; stroke-width: 3.125;"/><!--
@startuml
hide circle

skinparam dpi 300

skinparam shadowing false

skinparam defaultFontSize 14
skinparam defaultFontName Noto Sans

skinparam class {
  BackgroundColor #eeeeee
  ArrowColor #333333
  BorderColor #333333
}

skinparam state {
  BackgroundColor #eeeeee
  BorderColor #333333
  FontStyle bold
}

skinparam arrow {
  FontStyle italic
  ArrowColor #333333
}

state FlightSelected
state SeatReleased
state BookingCancelled
state SeatReserved
state SeatBooked

[*] -right-> FlightSelected : selectFlight
FlightSelected -right-> SeatReserved : selectSeat

SeatReserved - -> SeatBooked : payForSeat

SeatReserved - -> SeatReleased : timeout(5min)
SeatReleased - -> FlightSelected : restart

SeatReleased - -> BookingCancelled : cancel
SeatReserved - -> BookingCancelled : cancel

BookingCancelled -right-> [*]

SeatBooked -right-> [*]

@enduml

PlantUML version 1.2017.16(Sun Sep 03 12:53:37 CEST 2017)
(GPL source distribution)
Java Runtime: Java(TM) SE Runtime Environment
JVM: Java HotSpot(TM) 64-Bit Server VM
Java Version: 9+181
Operating System: Linux
OS Version: 4.10.0-38-generic
Default Encoding: UTF-8
Language: en
Country: US
--></g></svg>